<?xml version="1.0" encoding="utf-8"?>
<!-- Generator: Adobe Illustrator 18.0.0, SVG Export Plug-In . SVG Version: 6.00 Build 0)  -->
<!DOCTYPE svg PUBLIC "-//W3C//DTD SVG 1.1//EN" "http://www.w3.org/Graphics/SVG/1.1/DTD/svg11.dtd">
<svg version="1.1" id="Layer_1" xmlns="http://www.w3.org/2000/svg" xmlns:xlink="http://www.w3.org/1999/xlink" x="0px" y="0px"
	 viewBox="0 0 1400 980" enable-background="new 0 0 1400 980" xml:space="preserve">
<g>
	<rect fill="#354851" width="1400" height="980"/>
	<g>
		<g>
			<g>
				<path fill="#E1E2E2" d="M341.6,396.3H283v-23h58.6c9.1,0,16.6-7.4,16.6-16.6v-96.5c0-9.1-7.4-16.6-16.6-16.6H283v-23h58.6
					c21.8,0,39.6,17.8,39.6,39.6v96.5C381.2,378.6,363.4,396.3,341.6,396.3z"/>
			</g>
			<path fill="#F0F0F1" d="M326.4,194.5h-95.5h-95.5v0c24.7,73.6,24.7,153.3,0,226.9v0h95.5h95.5v0
				C301.7,347.8,301.7,268.2,326.4,194.5L326.4,194.5z"/>
			<g>
				<path fill="#FDD836" d="M310.1,206.5H151.7c2.7,9.3,4.9,18.7,6.9,28.1h144.7C305.1,225.2,307.4,215.8,310.1,206.5z"/>
				<path fill="#F9C12E" d="M303.2,234.6H158.5c4.9,24.1,7.4,48.6,7.4,73.4c0,34.4-4.8,68.5-14.2,101.5h158.4
					c-9.4-33-14.2-67-14.2-101.5C295.8,283.3,298.3,258.7,303.2,234.6z"/>
			</g>
			<path fill="#E1E2E2" d="M135.4,421.5v19.2c0,5.9,4.8,10.8,10.8,10.8h169.5c5.9,0,10.8-4.8,10.8-10.8v-19.2H135.4z"/>
			<path fill="#FEFCE8" d="M322.8,186c-1.2-10.5-9.4-19.1-19.9-20.7c-3.7-0.6-7.2-0.3-10.4,0.7c-6.1-11.3-18.1-19-31.9-19
				c-13.6,0-25.5,7.5-31.7,18.6c-4.3-3.8-9.9-6.2-16.1-6.2c-6.9,0-13.1,2.9-17.5,7.6c-6-4.8-13.6-7.6-21.8-7.6
				c-19.4,0-35.2,15.7-35.2,35.2h14.5c4.7,0,8.5,3.8,8.5,8.5v20.4c0,4.1,3.4,7.5,7.5,7.5h0c4.1,0,7.5-3.4,7.5-7.5V203
				c0-4.7,3.8-8.5,8.5-8.5h18c3.9,0,7,3.1,7,7v95.1c0,3.5,2.8,6.2,6.2,6.2h0c3.5,0,6.2-2.8,6.2-6.2v-95.1c0-3.9,3.1-7,7-7h0
				c3.9,0,7,3.1,7,7v52.4c0,3.6,2.9,6.5,6.5,6.5h0c3.6,0,6.5-2.9,6.5-6.5v-50.3c0-5,4.1-9.1,9.1-9.1h20.4c5,0,9,4,9,9v20.6
				c0,3.7,3,6.8,6.8,6.8h0c3.7,0,6.7-3,6.7-6.8v-20.4c0-5.1,4.1-9.2,9.2-9.2h11.6C322.9,191.8,323.1,188.9,322.8,186z"/>
			<circle fill="#FDD836" cx="267.6" cy="339.7" r="5.8"/>
			<circle fill="#FDD836" cx="197.2" cy="353.3" r="3.5"/>
			<circle fill="#FDD836" cx="192.5" cy="315.3" r="5.2"/>
			<circle fill="#FDD836" cx="217.4" cy="338.3" r="4.4"/>
			<circle fill="#FDD836" cx="242.9" cy="311.9" r="6.8"/>
			<circle fill="#FDD836" cx="262" cy="285.1" r="5"/>
			<circle fill="#FDD836" cx="268.8" cy="308.5" r="3.4"/>
			<circle fill="#FDD836" cx="182.4" cy="269.1" r="3.7"/>
			<circle fill="#FDD836" cx="184.2" cy="249.9" r="5.5"/>
			<circle fill="#FDD836" cx="198" cy="231.1" r="3"/>
			<circle fill="#FDD836" cx="202.7" cy="259.8" r="1.7"/>
			<circle fill="#FDD836" cx="230.7" cy="276.1" r="3.3"/>
			<circle fill="#FDD836" cx="231.4" cy="239.4" r="2.7"/>
			<circle fill="#FDD836" cx="262.2" cy="229.6" r="1.5"/>
			<circle fill="#FDD836" cx="269.4" cy="255.8" r="4"/>
			<circle fill="#FDD836" cx="283.4" cy="236.8" r="2.7"/>
			<circle fill="#FDD836" cx="232.2" cy="372.6" r="4.8"/>
			<circle fill="#FDD836" cx="239.5" cy="353.9" r="5.5"/>
			<circle fill="#FDD836" cx="209.9" cy="381.6" r="4.2"/>
			<circle fill="#FDD836" cx="234.4" cy="395.1" r="3"/>
			<circle fill="#FDD836" cx="256.4" cy="365.4" r="2.3"/>
		</g>
		<g>
			<path fill="#E1E2E2" d="M597,398.6v-21.2h-15v21.2c0,20-16.2,36.1-36.1,36.1H530v16.7h119v-16.7h-15.9
				C613.2,434.7,597,418.5,597,398.6z"/>
			<path fill="#F0F0F1" d="M589.5,380L589.5,380c-44.5,0-80.5-36-80.5-80.5V150.4h161v149.1C670,343.9,634,380,589.5,380z"/>
			<g>
				<path fill="#F9C12E" d="M521,194.1v105.4c0,37.8,30.7,68.5,68.5,68.5s68.5-30.7,68.5-68.5V194.1H521z"/>
				<rect x="521" y="162.4" fill="#FDD836" width="137" height="31.7"/>
			</g>
			<path fill="#FEFCE8" d="M669.6,150.4c0-16.9-8.6-36.2-30.6-36.2c-13.2,0-24.5,8.4-28.8,20.2c-1.7-0.5-3.6-0.7-5.5-0.7
				c-5.4,0-10.4,2.1-14.1,5.5c-5.4-9.6-15.7-16-27.5-16c-8.8,0-16.7,3.6-22.4,9.3c-3.2-2.1-7-3.3-11.2-3.3
				c-9.7,0-17.8,12.2-20.1,21.2h20.1c4.6,0,8.3,3.7,8.3,8.3v36.6c0,3.4,2.6,6.3,6,6.4c3.5,0.1,6.4-2.7,6.4-6.2v-42
				c0-1.7,1.4-3.2,3.2-3.2h0c1.7,0,3.2,1.4,3.2,3.2V172c0,3.6,2.7,6.7,6.3,6.8c3.7,0.1,6.7-2.8,6.7-6.5v-9.8c0-6.6,5.4-12,12-12h0
				c6.6,0,12,5.4,12,12v15.5c0,4.9,3.7,9.1,8.6,9.5c5.3,0.3,9.8-3.9,9.8-9.1v-25.2c0-1.5,1.2-2.7,2.7-2.7h0c1.5,0,2.7,1.2,2.7,2.7
				v10.7c0,3.3,2.5,6.2,5.8,6.2c3.4,0.1,6.2-2.6,6.2-6v-1.8c0-6.6,5.3-11.9,11.9-11.9H669.6z"/>
			<circle fill="#FDD836" cx="565.5" cy="221.4" r="4"/>
			<circle fill="#FDD836" cx="587" cy="208.9" r="2.5"/>
			<circle fill="#FDD836" cx="594" cy="231.6" r="4.5"/>
			<circle fill="#FDD836" cx="610" cy="217.9" r="3.5"/>
			<circle fill="#FDD836" cx="625" cy="197.9" r="3.8"/>
			<circle fill="#FDD836" cx="572.8" cy="194.4" r="7.3"/>
			<circle fill="#FDD836" cx="549.8" cy="222.5" r="4.6"/>
			<circle fill="#FDD836" cx="556.5" cy="253.1" r="3.7"/>
			<circle fill="#FDD836" cx="576.4" cy="233.8" r="2.2"/>
			<circle fill="#FDD836" cx="538.6" cy="237.6" r="3.8"/>
			<circle fill="#FDD836" cx="533.6" cy="208.3" r="3.6"/>
			<circle fill="#FDD836" cx="626.3" cy="244.3" r="5.2"/>
			<circle fill="#FDD836" cx="629.9" cy="223.7" r="3.6"/>
			<circle fill="#FDD836" cx="640.5" cy="204.4" r="2.7"/>
			<circle fill="#FDD836" cx="601.7" cy="194.3" r="5.2"/>
			<circle fill="#FDD836" cx="633" cy="184.3" r="1.5"/>
			<circle fill="#FDD836" cx="587.1" cy="260" r="5.2"/>
			<circle fill="#FDD836" cx="572.2" cy="272.4" r="2.7"/>
			<circle fill="#FDD836" cx="589.8" cy="286.3" r="2.8"/>
			<circle fill="#FDD836" cx="610.5" cy="250.8" r="4"/>
			<circle fill="#FDD836" cx="556" cy="278.3" r="3.2"/>
			<circle fill="#FDD836" cx="563.5" cy="306.4" r="4.3"/>
			<circle fill="#FDD836" cx="578.4" cy="312.8" r="2"/>
			<circle fill="#FDD836" cx="610.1" cy="279.8" r="1.6"/>
			<circle fill="#FDD836" cx="600.2" cy="316.4" r="3.7"/>
			<circle fill="#FDD836" cx="628.8" cy="302.6" r="3.8"/>
			<circle fill="#FDD836" cx="630" cy="268.8" r="3.6"/>
			<circle fill="#FDD836" cx="611.3" cy="294.6" r="2.8"/>
			<circle fill="#FDD836" cx="574.5" cy="331.1" r="2.3"/>
			<circle fill="#FDD836" cx="586.5" cy="341.8" r="2"/>
			<circle fill="#FDD836" cx="611.5" cy="333.4" r="4.7"/>
			<circle fill="#FDD836" cx="625.8" cy="322.8" r="2.7"/>
			<circle fill="#FDD836" cx="553.4" cy="316.4" r="3.7"/>
			<circle fill="#FDD836" cx="545.3" cy="297.5" r="2.9"/>
			<circle fill="#FDD836" cx="539.8" cy="272.4" r="2.7"/>
		</g>
		<g>
			<g>
				<path fill="#E1E2E2" d="M839.3,451.4L839.3,451.4l43.5,0h43.5v0c-1.5-6-2.8-12-4-18.1h-79C842.2,439.4,840.8,445.4,839.3,451.4z
					"/>
				<path fill="#F0F0F1" d="M924.1,275.4l3.9-17.8c10.8-48.7,16.2-98.4,16.2-148.2v0h-61.5h-61.5v0c0,49.9,5.4,99.6,16.2,148.2
					l3.9,17.8c11.5,52,12.1,105.8,1.8,158h79C912,381.2,912.6,327.4,924.1,275.4z"/>
				<g>
					<path fill="#FDD836" d="M932.2,121.3h-98.8c0.3,16.4,1.2,32.7,2.7,49h93.4C931,154,931.9,137.7,932.2,121.3z"/>
					<path fill="#F9C12E" d="M836.1,170.3c2.6,28.5,7,56.8,13.2,84.6l3.9,17.8c10.9,49.2,12.4,99.1,4.5,148.6H908
						c-7.9-49.5-6.4-99.4,4.5-148.6l3.9-17.8c6.2-27.9,10.6-56.2,13.2-84.6H836.1z"/>
				</g>
				<circle fill="#FDD836" cx="861" cy="188" r="4.3"/>
				<circle fill="#FDD836" cx="875.5" cy="206.2" r="2.2"/>
				<circle fill="#FDD836" cx="891.2" cy="187.2" r="3.5"/>
				<circle fill="#FDD836" cx="898.8" cy="208.2" r="4.2"/>
				<circle fill="#FDD836" cx="886.5" cy="225.3" r="3.7"/>
				<circle fill="#FDD836" cx="858.5" cy="223.5" r="1.8"/>
				<circle fill="#FDD836" cx="870.7" cy="245.7" r="2.3"/>
				<circle fill="#FDD836" cx="886.2" cy="246.7" r="3.3"/>
				<circle fill="#FDD836" cx="903.5" cy="237.3" r="4.7"/>
				<circle fill="#FDD836" cx="874.3" cy="230.3" r="1.2"/>
				<circle fill="#FDD836" cx="911.5" cy="189" r="3.3"/>
				<circle fill="#FDD836" cx="848.8" cy="202.2" r="1.8"/>
				<circle fill="#FDD836" cx="874.2" cy="269.5" r="3.5"/>
				<circle fill="#FDD836" cx="893.8" cy="268.7" r="2.7"/>
				<circle fill="#FDD836" cx="898.8" cy="256.2" r="2.2"/>
				<circle fill="#FDD836" cx="879.5" cy="260.3" r="1.8"/>
				<circle fill="#FDD836" cx="880.2" cy="284.2" r="2.5"/>
				<circle fill="#FDD836" cx="886.5" cy="300.8" r="3.8"/>
				<circle fill="#FDD836" cx="897.3" cy="287.6" r="3.4"/>
				<circle fill="#FDD836" cx="874.3" cy="305.9" r="1.2"/>
				<circle fill="#FDD836" cx="879.7" cy="320.7" r="2"/>
				<circle fill="#FDD836" cx="883.2" cy="338.7" r="3"/>
				<circle fill="#FDD836" cx="892.5" cy="313.3" r="1.3"/>
				<circle fill="#FDD836" cx="890.8" cy="325.3" r="1.3"/>
				<circle fill="#FDD836" cx="882.2" cy="357.3" r="2"/>
				<circle fill="#FDD836" cx="870.3" cy="284.6" r="3"/>
				<circle fill="#FDD836" cx="858.8" cy="258.5" r="1.5"/>
			</g>
			<path fill="#FEFCE8" d="M943.6,96.6c-1.1-7.7-7.2-13.9-14.8-15c-5.6-0.8-10.7,0.9-14.5,4.2c-4.9-9.4-14.8-15.9-26.2-15.9
				c-12.9,0-23.8,8.2-27.9,19.7c-1.4-0.4-2.9-0.7-4.4-0.7c-6.8,0-12.5,4.7-14.1,11.1c-1.3-0.5-2.8-0.7-4.4-0.4
				c-2.5,0.5-4.5,2.2-5.6,4.4c-1,1.9-1,3.7-0.6,5.3h31.4c1.6,0,2.8,1.3,2.8,2.8v0c0,3.4,2.8,6.2,6.2,6.2l0,0c3.4,0,6.2-2.8,6.2-6.2
				v0c0-1.6,1.3-2.8,2.8-2.8h18.3c1.2,0,2.2,1,2.2,2.2v6.2c0,5.2,4.2,9.3,9.3,9.3l0,0c5.2,0,9.3-4.2,9.3-9.3v-6.2
				c0-1.2,1-2.2,2.2-2.2l0,0c1.2,0,2.2,1,2.2,2.2v5.7c0,2.3,1.8,4.1,4.1,4.1l0,0c2.3,0,4.1-1.8,4.1-4.1v-2.8c0-2.8,2.3-5.1,5.1-5.1
				h3.2C943,105.8,944.2,101.3,943.6,96.6z"/>
		</g>
		<g>
			<polygon fill="#F0F0F1" points="1218.7,433.3 1154.6,433.3 1108.6,109.3 1264.6,109.3 			"/>
			<polygon fill="#E1E2E2" points="1154.4,433.2 1218.7,433.3 1229.9,451.4 1143.4,451.4 			"/>
			<g>
				<polygon fill="#FDD836" points="1250.8,121.3 1122.5,121.3 1130.6,178.3 1242.7,178.3 				"/>
				<polygon fill="#F9C12E" points="1130.6,178.3 1165.1,421.3 1208.2,421.3 1242.7,178.3 				"/>
			</g>
			<circle fill="#FDD836" cx="1165.2" cy="201.2" r="3.7"/>
			<circle fill="#FDD836" cx="1184.3" cy="214.3" r="4.2"/>
			<circle fill="#FDD836" cx="1186.4" cy="197.2" r="2.1"/>
			<circle fill="#FDD836" cx="1204.2" cy="195.8" r="2.3"/>
			<circle fill="#FDD836" cx="1204.7" cy="215.7" r="2.8"/>
			<circle fill="#FDD836" cx="1215.3" cy="203" r="1.8"/>
			<circle fill="#FDD836" cx="1176.5" cy="232.5" r="3"/>
			<circle fill="#FDD836" cx="1191" cy="239.8" r="4.3"/>
			<circle fill="#FDD836" cx="1157.3" cy="218.5" r="2.8"/>
			<circle fill="#FDD836" cx="1204.7" cy="231" r="2.8"/>
			<circle fill="#FDD836" cx="1223.5" cy="221.8" r="3.3"/>
			<circle fill="#FDD836" cx="1154.8" cy="188.8" r="2.7"/>
			<circle fill="#FDD836" cx="1229.5" cy="188.8" r="2.7"/>
			<circle fill="#FDD836" cx="1188.5" cy="179.7" r="4.2"/>
			<circle fill="#FDD836" cx="1206.3" cy="177.6" r="2.1"/>
			<circle fill="#FDD836" cx="1168" cy="259" r="2.8"/>
			<circle fill="#FDD836" cx="1193.8" cy="269.8" r="5.3"/>
			<circle fill="#FDD836" cx="1208.9" cy="251.5" r="2.7"/>
			<circle fill="#FDD836" cx="1181" cy="278" r="2.8"/>
			<circle fill="#FDD836" cx="1186.8" cy="296.8" r="3"/>
			<circle fill="#FDD836" cx="1214.4" cy="278" r="2.8"/>
			<circle fill="#FDD836" cx="1159.9" cy="275.4" r="2.6"/>
			<circle fill="#FDD836" cx="1156.7" cy="237.7" r="2.2"/>
			<circle fill="#FDD836" cx="1173.5" cy="306.8" r="2.7"/>
			<circle fill="#FDD836" cx="1184.8" cy="327" r="3.8"/>
			<circle fill="#FDD836" cx="1197.8" cy="311.2" r="1.7"/>
			<circle fill="#FDD836" cx="1204.2" cy="292.5" r="1.3"/>
			<circle fill="#FDD836" cx="1174.8" cy="344.2" r="4"/>
			<circle fill="#FDD836" cx="1182.8" cy="358.5" r="4.7"/>
			<circle fill="#FDD836" cx="1191.2" cy="345.5" r="2.7"/>
			<circle fill="#FDD836" cx="1209.3" cy="330.8" r="3.8"/>
			<circle fill="#FDD836" cx="1184.3" cy="384.5" r="3.3"/>
			<circle fill="#FDD836" cx="1199.8" cy="370.8" r="3.7"/>
			<path fill="#FEFCE8" d="M1112.6,109.4c0-15.7,7.9-33.6,28.4-33.6c12.3,0,22.7,7.8,26.7,18.7c1.6-0.4,3.3-0.7,5.1-0.7
				c5,0,9.6,1.9,13.1,5.1c5-8.9,14.5-14.8,25.4-14.8c8.1,0,15.4,3.3,20.7,8.6c3-1.9,6.5-3,10.3-3c9,0,16.5,11.3,18.6,19.7h-18.6
				c-4.2,0-7.7,3.4-7.7,7.7V151c0,3.1-2.4,5.9-5.5,6c-3.2,0.1-5.9-2.5-5.9-5.7v-38.9c0-1.6-1.3-2.9-2.9-2.9h0
				c-1.6,0-2.9,1.3-2.9,2.9v17c0,3.3-2.5,6.2-5.8,6.3c-3.4,0.1-6.2-2.6-6.2-6v-9.1c0-6.1-5-11.1-11.1-11.1l0,0
				c-6.1,0-11.1,5-11.1,11.1v14.4c0,4.5-3.4,8.5-7.9,8.8c-4.9,0.3-9.1-3.6-9.1-8.5v-23.3c0-1.4-1.1-2.5-2.5-2.5l0,0
				c-1.4,0-2.5,1.1-2.5,2.5v10c0,3-2.3,5.7-5.4,5.8c-3.1,0.1-5.7-2.4-5.7-5.6v-1.6c0-6.1-4.9-11-11-11H1112.6z"/>
		</g>
		<g>
			<rect x="155.3" y="561.2" fill="#F0F0F1" width="151.1" height="321"/>
			<rect x="155.3" y="882.2" fill="#E1E2E2" width="151.1" height="28"/>
			<g>
				<rect x="167.3" y="573.2" fill="#FDD836" width="127.1" height="58"/>
				<rect x="167.3" y="631.2" fill="#F9C12E" width="127.1" height="239"/>
			</g>
			<circle fill="#FDD836" cx="215.7" cy="664.5" r="3"/>
			<circle fill="#FDD836" cx="235.2" cy="680" r="2.8"/>
			<circle fill="#FDD836" cx="251.2" cy="653" r="3.5"/>
			<circle fill="#FDD836" cx="269.9" cy="673.8" r="6.2"/>
			<circle fill="#FDD836" cx="226.5" cy="709" r="4.8"/>
			<circle fill="#FDD836" cx="195" cy="691.2" r="3.7"/>
			<circle fill="#FDD836" cx="245.5" cy="730.7" r="3.5"/>
			<circle fill="#FDD836" cx="254.5" cy="702.8" r="3.3"/>
			<circle fill="#FDD836" cx="213.5" cy="732.7" r="5.5"/>
			<circle fill="#FDD836" cx="195.8" cy="714" r="2.8"/>
			<circle fill="#FDD836" cx="229.8" cy="755.4" r="4.8"/>
			<circle fill="#FDD836" cx="254.8" cy="754.2" r="3.6"/>
			<circle fill="#FDD836" cx="192.5" cy="646.7" r="2.8"/>
			<circle fill="#FDD836" cx="226.5" cy="638.3" r="4.8"/>
			<circle fill="#FDD836" cx="260.2" cy="635.9" r="2.4"/>
			<circle fill="#FDD836" cx="205.5" cy="765.3" r="5.2"/>
			<circle fill="#FDD836" cx="227.8" cy="801" r="6.2"/>
			<circle fill="#FDD836" cx="246.3" cy="787.2" r="4.3"/>
			<circle fill="#FDD836" cx="262" cy="771.2" r="3.7"/>
			<circle fill="#FDD836" cx="270.2" cy="729.7" r="4.5"/>
			<circle fill="#FDD836" cx="195.8" cy="795.7" r="2.8"/>
			<circle fill="#FDD836" cx="219.5" cy="827.3" r="6.8"/>
			<circle fill="#FDD836" cx="235.2" cy="824.7" r="2.8"/>
			<circle fill="#FDD836" cx="257" cy="808.3" r="2.5"/>
			<circle fill="#FDD836" cx="230.5" cy="850.2" r="4"/>
			<circle fill="#FDD836" cx="250.8" cy="844.3" r="1.8"/>
			<path fill="#FEFCE8" d="M306.2,550.9c-1.2-8.5-8.1-15.3-16.7-16.3c-5.3-0.6-10.1,1-13.9,4c-4.2-4.9-10.5-8.1-17.5-8.1
				c-2,0-3.9,0.2-5.7,0.7c-5.2-9.4-15.2-15.7-26.7-15.7c-11.8,0-22.1,6.7-27.1,16.5c-2.9-1-6.1-1.5-9.4-1.5
				c-16.2,0-29.3,13.1-29.3,29.3c0,0.4,0,0.9,0,1.3h10.2c4.7,0,8.4,3.8,8.4,8.4V609c0,3,2.5,5.5,5.5,5.5l0,0c3,0,5.5-2.5,5.5-5.5
				v-41c0-3.8,3.1-6.8,6.8-6.8l0,0c3.8,0,6.8,3.1,6.8,6.8v17.3c0,3.4,2.8,6.2,6.2,6.2l0,0c3.4,0,6.2-2.8,6.2-6.2v-16.6
				c0-4.2,3.4-7.6,7.6-7.6l0,0c4.2,0,7.6,3.4,7.6,7.6v84.3c0,4.6,3.8,8.4,8.4,8.4h0c4.6,0,8.4-3.8,8.4-8.4v-86.8
				c0-2.8,2.3-5.1,5.1-5.1l0,0c2.8,0,5.1,2.3,5.1,5.1v27.7c0,4.6,3.7,8.2,8.2,8.2l0,0c4.6,0,8.2-3.7,8.2-8.2v-25.4
				c0-4.1,3.3-7.4,7.4-7.4h23.1C306.1,558.1,306.7,554.6,306.2,550.9z"/>
		</g>
		<g>
			<path fill="#F0F0F1" d="M602,767.9c0-21.6,5.4-42.9,15.8-61.9l0,0c10.4-19,15.8-40.2,15.8-61.9v-83h-195V645
				c0,21.1,5.2,41.9,15.1,60.5l1.4,2.7c9.9,18.6,15.1,39.4,15.1,60.5v101.4H602V767.9z"/>
			<path fill="#E1E2E2" d="M470.3,870.2v18.8c0,7.8,6.3,14.1,14.1,14.1h103.4c7.8,0,14.1-6.3,14.1-14.1v-18.8H470.3z"/>
			<g>
				<rect x="450.6" y="573.2" fill="#FDD836" width="171" height="51.3"/>
				<path fill="#F9C12E" d="M450.6,624.5V645c0,19.1,4.7,38.1,13.7,54.9l1.4,2.7c10.8,20.3,16.5,43.2,16.5,66.2v89.4H590v-90.2
					c0-23.6,6-46.9,17.3-67.6c9.4-17.1,14.3-36.5,14.3-56.1v-19.7H450.6z"/>
			</g>
			<circle fill="#FDD836" cx="478.1" cy="647.2" r="4"/>
			<circle fill="#FDD836" cx="501.3" cy="661.4" r="5.2"/>
			<circle fill="#FDD836" cx="510.8" cy="639.4" r="4.2"/>
			<circle fill="#FDD836" cx="539.3" cy="661.4" r="5.2"/>
			<circle fill="#FDD836" cx="555.6" cy="641.9" r="2.5"/>
			<circle fill="#FDD836" cx="530.1" cy="683.7" r="4.5"/>
			<circle fill="#FDD836" cx="557.1" cy="687.7" r="4"/>
			<circle fill="#FDD836" cx="574.3" cy="666.2" r="4.8"/>
			<circle fill="#FDD836" cx="593.7" cy="644.5" r="2.6"/>
			<circle fill="#FDD836" cx="499.6" cy="684.7" r="3.5"/>
			<circle fill="#FDD836" cx="515.1" cy="714.9" r="4.2"/>
			<circle fill="#FDD836" cx="533.1" cy="701.7" r="3"/>
			<circle fill="#FDD836" cx="546.8" cy="720.9" r="5.2"/>
			<circle fill="#FDD836" cx="572.1" cy="703.2" r="4.5"/>
			<circle fill="#FDD836" cx="590.3" cy="684.4" r="3.2"/>
			<circle fill="#FDD836" cx="488.1" cy="698.7" r="3"/>
			<circle fill="#FDD836" cx="504" cy="735.8" r="2.6"/>
			<circle fill="#FDD836" cx="525" cy="744" r="5.6"/>
			<circle fill="#FDD836" cx="536.6" cy="731.2" r="2"/>
			<circle fill="#FDD836" cx="556.6" cy="751.7" r="4.5"/>
			<circle fill="#FDD836" cx="566.3" cy="732.4" r="3.2"/>
			<circle fill="#FDD836" cx="544.1" cy="767.4" r="4.8"/>
			<circle fill="#FDD836" cx="529.7" cy="771.5" r="4.1"/>
			<circle fill="#FDD836" cx="534.7" cy="797.2" r="5"/>
			<circle fill="#FDD836" cx="517.8" cy="783.9" r="2.8"/>
			<circle fill="#FDD836" cx="554.7" cy="786.5" r="2.6"/>
			<circle fill="#FDD836" cx="558.7" cy="809.2" r="4"/>
			<circle fill="#FDD836" cx="530.1" cy="822.7" r="4.5"/>
			<circle fill="#FDD836" cx="508.7" cy="804.3" r="2.1"/>
			<circle fill="#FDD836" cx="558.8" cy="773.8" r="2.2"/>
			<circle fill="#FDD836" cx="545.8" cy="840.9" r="4.2"/>
			<path fill="#FEFCE8" d="M439.4,539.8c1.8-13,12.1-23.4,25.1-25.4c9.4-1.4,18.1,1.5,24.5,7.1c8.3-16,25.1-26.9,44.3-26.9
				c21.7,0,40.2,13.9,47.1,33.3c2.3-0.7,4.8-1.2,7.4-1.2c11.5,0,21.2,8,23.8,18.7c2.3-0.9,4.8-1.1,7.5-0.6c4.2,0.8,7.6,3.7,9.5,7.5
				c1.6,3.2,1.7,6.3,1.1,9h-53.2c-2.6,0-4.8,2.1-4.8,4.8l0,0c0,5.8-4.7,10.4-10.4,10.4l0,0c-5.8,0-10.4-4.7-10.4-10.4l0,0
				c0-2.6-2.1-4.8-4.8-4.8h-31c-2,0-3.7,1.6-3.7,3.7v10.4c0,8.7-7.1,15.8-15.8,15.8h0c-8.7,0-15.8-7.1-15.8-15.8v-10.4
				c0-2-1.6-3.7-3.7-3.7h0c-2,0-3.7,1.6-3.7,3.7v9.7c0,3.8-3.1,6.9-6.9,6.9l0,0c-3.8,0-6.9-3.1-6.9-6.9v-4.8c0-4.7-3.8-8.5-8.5-8.5
				h-5.5C440.4,555.4,438.3,547.9,439.4,539.8z"/>
		</g>
		<g>
			<g>
				<path fill="#E1E2E2" d="M989.9,849.5h-58.6v-23h58.6c9.1,0,16.6-7.4,16.6-16.6v-96.5c0-9.1-7.4-16.6-16.6-16.6h-58.6v-23h58.6
					c21.8,0,39.6,17.8,39.6,39.6v96.5C1029.5,831.7,1011.8,849.5,989.9,849.5z"/>
			</g>
			<path fill="#F0F0F1" d="M975.4,734.1c0-30.5-2.6-59.8-7.5-86.6H759.4c-4.8,26.9-7.5,56.1-7.5,86.6c0,50.5,7.2,97.3,19.5,136
				h184.4C968.2,831.5,975.4,784.6,975.4,734.1z"/>
			<path fill="#E1E2E2" d="M771.4,870.2c3,9.4,6.3,18.3,9.8,26.7H946c3.6-8.4,6.8-17.3,9.8-26.7H771.4z"/>
			<g>
				<path fill="#FDD836" d="M957.8,659.5H769.5c-2.4,15.6-4.1,31.8-4.9,48.2h198.1C961.8,691.3,960.2,675.1,957.8,659.5z"/>
				<path fill="#F9C12E" d="M764.6,707.7c-0.5,8.7-0.7,17.6-0.7,26.5c0,44.3,5.7,86.9,16.4,124H947c10.8-37.1,16.4-79.8,16.4-124
					c0-8.9-0.2-17.7-0.7-26.5H764.6z"/>
			</g>
			<circle fill="#FDD836" cx="793.5" cy="737.5" r="3.8"/>
			<circle fill="#FDD836" cx="818.2" cy="754.3" r="4.6"/>
			<circle fill="#FDD836" cx="824.5" cy="727.4" r="6.2"/>
			<circle fill="#FDD836" cx="855.3" cy="745.5" r="4.2"/>
			<circle fill="#FDD836" cx="875.1" cy="723.2" r="2"/>
			<circle fill="#FDD836" cx="889.2" cy="743.6" r="6.1"/>
			<circle fill="#FDD836" cx="918.4" cy="720.4" r="4.8"/>
			<circle fill="#FDD836" cx="931.4" cy="758" r="3.7"/>
			<circle fill="#FDD836" cx="876.9" cy="771.4" r="3.8"/>
			<circle fill="#FDD836" cx="859.2" cy="779" r="3.9"/>
			<circle fill="#FDD836" cx="833.8" cy="773.4" r="5.7"/>
			<circle fill="#FDD836" cx="827.8" cy="808.7" r="5"/>
			<circle fill="#FDD836" cx="797.6" cy="775.5" r="4.1"/>
			<circle fill="#FDD836" cx="812.3" cy="785" r="2.1"/>
			<circle fill="#FDD836" cx="855.6" cy="799.2" r="4.5"/>
			<circle fill="#FDD836" cx="886.9" cy="790.9" r="3.8"/>
			<circle fill="#FDD836" cx="907.5" cy="770.5" r="2.8"/>
			<circle fill="#FDD836" cx="915.1" cy="803.9" r="4.8"/>
			<circle fill="#FDD836" cx="928.2" cy="782.1" r="3.1"/>
			<circle fill="#FDD836" cx="940.1" cy="732.5" r="5"/>
			<circle fill="#FDD836" cx="885.1" cy="824.7" r="4.5"/>
			<circle fill="#FDD836" cx="858.6" cy="827.9" r="3.2"/>
			<circle fill="#FDD836" cx="827.6" cy="839.8" r="3.1"/>
			<circle fill="#FDD836" cx="864.8" cy="848.2" r="3"/>
			<circle fill="#FDD836" cx="898.4" cy="839.8" r="3.1"/>
			<circle fill="#FDD836" cx="913.5" cy="831" r="3.1"/>
			<path fill="#FEFCE8" d="M768,639c1.2-10.5,9.4-19.1,19.9-20.7c3.7-0.6,7.2-0.3,10.4,0.7c6.1-11.3,18.1-19,31.9-19
				c13.6,0,25.5,7.5,31.7,18.6c4.3-3.8,9.9-6.2,16.1-6.2c6.9,0,13.1,2.9,17.5,7.6c6-4.8,13.6-7.6,21.8-7.6
				c19.4,0,35.2,15.7,35.2,35.2h-14.5c-4.7,0-8.5,3.8-8.5,8.5v20.4c0,4.1-3.4,7.5-7.5,7.5l0,0c-4.1,0-7.5-3.4-7.5-7.5V656
				c0-4.7-3.8-8.5-8.5-8.5h-18c-3.9,0-7,3.1-7,7v95.1c0,3.5-2.8,6.2-6.2,6.2l0,0c-3.5,0-6.2-2.8-6.2-6.2v-95.1c0-3.9-3.1-7-7-7l0,0
				c-3.9,0-7,3.1-7,7V707c0,3.6-2.9,6.5-6.5,6.5l0,0c-3.6,0-6.5-2.9-6.5-6.5v-50.3c0-5-4.1-9.1-9.1-9.1h-20.4c-5,0-9,4-9,9v20.6
				c0,3.7-3,6.7-6.8,6.7l0,0c-3.7,0-6.8-3-6.8-6.7v-20.4c0-5.1-4.1-9.2-9.2-9.2h-11.6C767.9,644.9,767.7,642,768,639z"/>
		</g>
		<g>
			<path fill="#E1E2E2" d="M1192.9,854c4.9-76.3,22.8-115.8,22.8-115.8h-29h-29c0,0,17.9,39.5,22.8,115.8
				c1.1,16.9-12.3,31.2-29.2,31.2h-5c-4.1,0-7.5,3.4-7.5,7.5v0c0,4.1,3.4,7.5,7.5,7.5h80.9c4.1,0,7.5-3.4,7.5-7.5v0
				c0-4.1-3.4-7.5-7.5-7.5h-5C1205.2,885.2,1191.8,870.9,1192.9,854z"/>
			<path fill="#F0F0F1" d="M1119.3,603.7c-3.9,13.5-6.1,28.4-6.1,44c0,60.9,32.9,110.2,73.5,110.2c40.6,0,73.5-49.4,73.5-110.2
				c0-15.7-2.2-30.6-6.1-44H1119.3z"/>
			<g>
				<path fill="#FDD836" d="M1244.8,615.7h-116.2c-2.2,10-3.4,20.5-3.4,31.2h123C1248.1,636.2,1247,625.8,1244.8,615.7z"/>
				<path fill="#F9C12E" d="M1125.2,647c0,0.3,0,0.5,0,0.8c0,27.1,6.9,52.4,19.5,71.3c11.6,17.4,26.5,26.9,42,26.9s30.4-9.6,42-26.9
					c12.6-18.9,19.5-44.2,19.5-71.3c0-0.3,0-0.5,0-0.8H1125.2z"/>
			</g>
			<circle fill="#FDD836" cx="1144.3" cy="654.4" r="2.3"/>
			<circle fill="#FDD836" cx="1153.8" cy="669.9" r="3.8"/>
			<circle fill="#FDD836" cx="1166.7" cy="661.7" r="3"/>
			<circle fill="#FDD836" cx="1188.9" cy="663.9" r="2.2"/>
			<circle fill="#FDD836" cx="1185.5" cy="678.2" r="4.5"/>
			<circle fill="#FDD836" cx="1166.8" cy="685.9" r="3.2"/>
			<circle fill="#FDD836" cx="1181.6" cy="700.5" r="3.9"/>
			<circle fill="#FDD836" cx="1198" cy="696.7" r="2.7"/>
			<circle fill="#FDD836" cx="1205.9" cy="677.3" r="3.6"/>
			<circle fill="#FDD836" cx="1216.2" cy="654.9" r="2.8"/>
			<circle fill="#FDD836" cx="1229" cy="673.6" r="3.7"/>
			<circle fill="#FDD836" cx="1222.4" cy="689.3" r="3.4"/>
			<circle fill="#FDD836" cx="1231.4" cy="654.4" r="2.3"/>
			<circle fill="#FDD836" cx="1146" cy="687.6" r="1.7"/>
			<circle fill="#FDD836" cx="1156.3" cy="701.9" r="2.5"/>
			<circle fill="#FDD836" cx="1172.5" cy="714.6" r="2.8"/>
			<circle fill="#FDD836" cx="1177.7" cy="727.4" r="2.3"/>
			<circle fill="#FDD836" cx="1192.7" cy="717.2" r="2.7"/>
			<circle fill="#FDD836" cx="1197.3" cy="729.4" r="2"/>
			<circle fill="#FDD836" cx="1209.3" cy="719.2" r="2"/>
			<path fill="#FEFCE8" d="M1251.6,603.7c0-13.5-6.8-29-24.5-29c-10.6,0-19.6,6.7-23,16.1c-1.4-0.4-2.9-0.6-4.4-0.6
				c-4.4,0-8.3,1.7-11.3,4.4c-4.3-7.6-12.6-12.8-22-12.8c-7,0-13.3,2.9-17.9,7.5c-2.6-1.7-5.6-2.6-8.9-2.6c-7.7,0-14.2,9.8-16.1,17
				h16.1c3.7,0,6.6,3,6.6,6.6v29.3c0,2.7,2.1,5.1,4.8,5.1c2.8,0.1,5.1-2.2,5.1-4.9v-33.6c0-1.4,1.1-2.5,2.5-2.5l0,0
				c1.4,0,2.5,1.1,2.5,2.5V621c0,2.8,2.2,5.3,5,5.4c2.9,0.1,5.4-2.3,5.4-5.2v-7.9c0-5.3,4.3-9.6,9.6-9.6l0,0c5.3,0,9.6,4.3,9.6,9.6
				v12.4c0,3.9,2.9,7.3,6.8,7.6c4.3,0.3,7.8-3.1,7.8-7.3v-20.1c0-1.2,1-2.1,2.1-2.1l0,0c1.2,0,2.1,1,2.1,2.1v8.6c0,2.6,2,4.9,4.7,5
				c2.7,0.1,4.9-2.1,4.9-4.8v-1.4c0-5.3,4.3-9.5,9.5-9.5H1251.6z"/>
		</g>
	</g>
</g>
</svg>
