<?xml version="1.0" encoding="utf-8"?>
<!-- Generator: Adobe Illustrator 21.0.0, SVG Export Plug-In . SVG Version: 6.00 Build 0)  -->
<svg version="1.1" id="Layer_1" xmlns="http://www.w3.org/2000/svg" xmlns:xlink="http://www.w3.org/1999/xlink" x="0px" y="0px"
	 width="3000px" height="2000px" viewBox="0 0 3000 2000" style="enable-background:new 0 0 3000 2000;" xml:space="preserve">
<style type="text/css">
	.st0{fill-rule:evenodd;clip-rule:evenodd;fill:#9FDBED;}
	.st1{fill-rule:evenodd;clip-rule:evenodd;fill:#ADE0F0;}
	.st2{fill-rule:evenodd;clip-rule:evenodd;fill:#C8EAF5;}
	.st3{fill-rule:evenodd;clip-rule:evenodd;fill:#BDE6F5;}
	.st4{fill-rule:evenodd;clip-rule:evenodd;fill:#D7F0F9;}
	.st5{fill-rule:evenodd;clip-rule:evenodd;fill:#FFFFFF;}
	.st6{fill-rule:evenodd;clip-rule:evenodd;fill:#E4F5FD;}
	.st7{fill-rule:evenodd;clip-rule:evenodd;fill:#C2C3C6;}
	.st8{fill-rule:evenodd;clip-rule:evenodd;fill:#E0DEDE;}
	.st9{fill-rule:evenodd;clip-rule:evenodd;fill:#A63336;}
	.st10{fill-rule:evenodd;clip-rule:evenodd;fill:#8A2829;}
	.st11{fill-rule:evenodd;clip-rule:evenodd;fill:#DD4146;}
	.st12{fill-rule:evenodd;clip-rule:evenodd;fill:#F9B4A6;}
	.st13{fill-rule:evenodd;clip-rule:evenodd;fill:#BC3334;}
	.st14{fill-rule:evenodd;clip-rule:evenodd;fill:#1D588A;}
	.st15{fill-rule:evenodd;clip-rule:evenodd;fill:#295D8F;}
	.st16{fill-rule:evenodd;clip-rule:evenodd;fill:#FFC421;}
	.st17{fill-rule:evenodd;clip-rule:evenodd;fill:#224368;}
	.st18{fill-rule:evenodd;clip-rule:evenodd;fill:#E15559;}
	.st19{fill-rule:evenodd;clip-rule:evenodd;fill:#7D5A2F;}
	.st20{fill-rule:evenodd;clip-rule:evenodd;fill:#5B2626;}
	.st21{fill-rule:evenodd;clip-rule:evenodd;fill:#F79B86;}
</style>
<g>
	<rect x="0" y="0" class="st0" width="3000" height="2000"/>
	<path class="st1" d="M1500,6.5C838.3,6.5,267,393.5,0,953.5V2000h3000V953.5C2733,393.5,2161.7,6.5,1500,6.5z"/>
	<polygon class="st2" points="3000,1988.2 3000,1382.6 1844,1189.5 	"/>
	<polygon class="st2" points="0,992.6 1383.4,1223.6 0,267.8 	"/>
	<path class="st3" d="M1500,391.3c-620.5,0-1123.5,503-1123.5,1123.5c0,173.8,39.5,338.3,109.9,485.2h2027.2
		c70.4-146.9,109.9-311.4,109.9-485.2C2623.5,894.3,2120.5,391.3,1500,391.3z"/>
	<polygon class="st2" points="0,2000 306.4,2000 1383.4,1255.9 0,1487 	"/>
	<polygon class="st3" points="0,2000 122,2000 854.8,1493.7 0,1636.4 	"/>
	<polygon class="st2" points="3000,1028.9 3000,259.3 1531,1274.2 	"/>
	<path class="st2" d="M1500,730.8c-433,0-783.9,351-783.9,783.9c0,183.2,62.9,351.7,168.2,485.2h1231.5
		c105.3-133.5,168.2-302,168.2-485.2C2283.9,1081.8,1933,730.8,1500,730.8z"/>
	<g>
		<polygon class="st3" points="0,892.6 1017.2,1151.1 0,359.6 		"/>
		<path class="st2" d="M492.3,1017.7l525,133.5L607.5,832.3C563.4,890,524.7,952,492.3,1017.7z"/>
		<path class="st4" d="M832.2,1104.1l185.1,47l-141.7-110.3C860.1,1061.2,845.6,1082.3,832.2,1104.1z"/>
	</g>
	<circle class="st4" cx="1500" cy="1514.8" r="444.4"/>
	<path class="st5" d="M885.2,909.1h-14.4c-3.5,0-6.3,2.8-6.3,6.3c0,3.5,2.8,6.3,6.3,6.3h14.4c3.5,0,6.3-2.8,6.3-6.3
		C891.5,911.9,888.7,909.1,885.2,909.1z"/>
	<path class="st5" d="M899.6,923.5c-3.5,0-6.3,2.8-6.3,6.3v14.4c0,3.5,2.8,6.3,6.3,6.3c3.5,0,6.3-2.8,6.3-6.3v-14.4
		C905.8,926.3,903,923.5,899.6,923.5z"/>
	<path class="st5" d="M899.6,880.4c-3.5,0-6.3,2.8-6.3,6.3V901c0,3.5,2.8,6.3,6.3,6.3c3.5,0,6.3-2.8,6.3-6.3v-14.4
		C905.8,883.2,903,880.4,899.6,880.4z"/>
	<path class="st5" d="M928.3,909.1h-14.4c-3.5,0-6.3,2.8-6.3,6.3c0,3.5,2.8,6.3,6.3,6.3h14.4c3.5,0,6.3-2.8,6.3-6.3
		C934.6,911.9,931.8,909.1,928.3,909.1z"/>
	<path class="st5" d="M1654.9,835.1c-2.4-2.4-6.4-2.4-8.8,0c-2.4,2.4-2.4,6.4,0,8.8l10.2,10.2c2.4,2.4,6.4,2.4,8.8,0
		c2.4-2.4,2.4-6.4,0-8.8L1654.9,835.1z"/>
	<path class="st5" d="M1656.3,865.5l-10.2,10.2c-2.4,2.4-2.4,6.4,0,8.8c2.4,2.4,6.4,2.4,8.8,0l10.2-10.2c2.4-2.4,2.4-6.4,0-8.8
		C1662.7,863.1,1658.7,863.1,1656.3,865.5z"/>
	<path class="st5" d="M1686.7,835.1l-10.2,10.2c-2.4,2.4-2.4,6.4,0,8.8c2.4,2.4,6.4,2.4,8.8,0l10.2-10.2c2.4-2.4,2.4-6.4,0-8.8
		C1693.1,832.6,1689.2,832.6,1686.7,835.1z"/>
	<path class="st5" d="M1685.4,865.5c-2.4-2.4-6.4-2.4-8.8,0s-2.4,6.4,0,8.8l10.2,10.2c2.4,2.4,6.4,2.4,8.8,0c2.4-2.4,2.4-6.4,0-8.8
		L1685.4,865.5z"/>
	<path class="st6" d="M846,1157c-36.7-10-66.4-8.8-66.4,2.6c0,11.4,29.7,28.8,66.4,38.7c36.7,10,66.4,8.8,66.4-2.6
		C912.4,1184.4,882.7,1167,846,1157z"/>
	<path class="st6" d="M1804.2,1003.3c-25.3,17.5-45.8,38.1-45.8,45.9c0,7.9,20.5,0.1,45.8-17.4c25.3-17.5,45.8-38.1,45.8-45.9
		C1849.9,978,1829.4,985.8,1804.2,1003.3z"/>
	<g>
		<path class="st6" d="M1066.2,1007.7c-20.6-17.5-39-25.3-41.1-17.5c-2.1,7.9,12.9,28.4,33.6,45.9c20.6,17.5,39,25.3,41.1,17.5
			C1101.8,1045.7,1086.8,1025.2,1066.2,1007.7z"/>
		<path class="st6" d="M1079.7,1082.4c-14.7-10.2-26.6-14.7-26.6-10.1s11.9,16.5,26.6,26.7c14.7,10.2,26.6,14.7,26.6,10.1
			C1106.2,1104.5,1094.3,1092.6,1079.7,1082.4z"/>
	</g>
	<path class="st5" d="M356.9,1300.5l-118.1-20.2c-3.4-0.6-6.6,1.7-7.2,5.1c-0.6,3.4,1.7,6.6,5.1,7.2l118.1,20.2
		c3.4,0.6,6.6-1.7,7.2-5.1C362.6,1304.3,360.3,1301.1,356.9,1300.5z"/>
	<path class="st5" d="M1260.4,1455l-812-138.8c-3.4-0.6-6.6,1.7-7.2,5.1c-0.6,3.4,1.7,6.6,5.1,7.2l812,138.8
		c3.4,0.6,6.6-1.7,7.2-5.1C1266.1,1458.8,1263.8,1455.6,1260.4,1455z"/>
	<path class="st5" d="M2283.5,827l-667.3,442.9c-2.9,1.9-3.7,5.8-1.8,8.6c1.9,2.9,5.8,3.7,8.6,1.8l667.3-442.9
		c2.9-1.9,3.7-5.8,1.8-8.6C2290.2,825.9,2286.4,825.1,2283.5,827z"/>
	<path class="st5" d="M2350.2,782.7l-40.2,26.7c-2.9,1.9-3.7,5.8-1.8,8.6c1.9,2.9,5.8,3.7,8.6,1.8l40.2-26.7
		c2.9-1.9,3.7-5.8,1.8-8.6C2357,781.6,2353.1,780.8,2350.2,782.7z"/>
	<path class="st5" d="M660.4,450.5c-2.1-2.7-6-3.2-8.7-1.1c-2.7,2.1-3.2,6-1.1,8.7l28.1,35.9c2.1,2.7,6,3.2,8.7,1.1
		c2.7-2.1,3.2-6,1.1-8.7L660.4,450.5z"/>
	<path class="st5" d="M711.2,515.4c-2.1-2.7-6-3.2-8.7-1.1c-2.7,2.1-3.2,6-1.1,8.7l611.5,782c2.1,2.7,6,3.2,8.7,1.1
		c2.7-2.1,3.2-6,1.1-8.7L711.2,515.4z"/>
	<path class="st5" d="M854.4,1776.3l-32.5,20.8c-2.9,1.9-3.7,5.7-1.9,8.6c1.9,2.9,5.7,3.7,8.6,1.9l32.5-20.8
		c2.9-1.9,3.7-5.7,1.9-8.6C861.2,1775.2,857.3,1774.4,854.4,1776.3z"/>
	<path class="st5" d="M1261.9,1515l-386.8,248c-2.9,1.9-3.7,5.7-1.9,8.6c1.9,2.9,5.7,3.7,8.6,1.9l386.8-248c2.9-1.9,3.7-5.7,1.9-8.6
		C1268.7,1514,1264.8,1513.1,1261.9,1515z"/>
	<g>
		<path class="st7" d="M1405.6,1882c-13,0-25.3,2.4-36.5,6.7c-26.5-51.9-80.9-88.1-141.1-88.1c-2.8,0-5.6,0.1-8.4,0.2
			c-25.7-109.1-126.6-192.6-240.6-192.6c-126.3,0-220.9,102.4-211.2,228.7c4.9,63.8,35.4,121.5,80.8,163h258.2h62.6h140.3h70.1
			h139.8c0.2-4,0.1-8.1-0.2-12.3C1514.9,1929.4,1464,1882,1405.6,1882z"/>
		<path class="st8" d="M1703.1,1885.9c-12.6,0-24.1,2.3-34.2,6.5c-34.3-50.2-93-85.3-151.2-85.3c-2.7,0-5.4,0.1-8.1,0.2
			c-43.1-105.6-154.6-186.3-265-186.3c-122.2,0-196.6,99.1-166.2,221.3c15.4,61.8,54.6,117.6,105.4,157.7h249.9h60.6H1630h67.8
			h135.3c-0.5-3.9-1.3-7.9-2.3-11.9C1816.8,1931.6,1759.6,1885.9,1703.1,1885.9z"/>
		<g>
			<path class="st8" d="M1876.3,1456.7c-194.4,0-351.9,157.6-351.9,351.9c0,70.6,20.8,136.2,56.5,191.3h590.9
				c35.7-55.1,56.5-120.8,56.5-191.3C2228.3,1614.3,2070.7,1456.7,1876.3,1456.7z"/>
			<path class="st5" d="M1741.3,1726.9c-119.8,0-216.9,97.1-216.9,216.9c0,19.5,2.6,38.3,7.4,56.3h419c4.8-17.9,7.4-36.8,7.4-56.3
				C1958.1,1824,1861,1726.9,1741.3,1726.9z"/>
		</g>
		<g>
			<path class="st9" d="M1514.9,676.2c-40.3-10.1-104.6-23.6-240.9-9.2c-136.3,14.4-184.7,205.7-245.7,335.2
				c-37.8,80.3-259.8,245.7-552.7-37.8c4.7,340.1,255.7,495.9,458.2,448.8c203.1-47.2,61.4,174.8,259.8,222
				c230.7,54.9,444.5-171.8,481.9-604.7C1699.2,756.5,1590.5,695.1,1514.9,676.2z"/>
			<path class="st10" d="M1590.5,813.2c-54.5-30.7-303.4-56.4-437.8-68.4c-35.9,48.1-62.8,111.9-88.2,173.3
				c-9.4,76.3-33.2,157.7-88.2,202.2c-122.8,99.2-42.5,203.1,56.7,174.8c99.2-28.3,179.5-42.5,151.2,23.6
				c-95.9,223.9,231.2,301.4,377.9-89.8C1593.3,1145.8,1666.1,855.7,1590.5,813.2z"/>
			<path class="st11" d="M1783.3,1214.7c-58.5-31.1-131.1-8.8-162.2,49.7l-89.3,168.1c-31.1,58.5-8.8,131.1,49.7,162.2
				c58.5,31.1,131.1,8.8,162.2-49.7l89.3-168.1C1864.1,1318.4,1841.8,1245.8,1783.3,1214.7z"/>
			<path class="st9" d="M1783.3,1214.7c-58.5-31.1-131.1-8.8-162.2,49.7l-89.3,168.1c-3.7,7-6.7,14.3-8.9,21.7
				c10.5,14.8,24.5,27.4,41.6,36.5c58.5,31.1,131.1,8.8,162.2-49.7l89.3-168.1c3.7-7,6.7-14.3,8.9-21.7
				C1814.4,1236.4,1800.4,1223.8,1783.3,1214.7z"/>
			<circle class="st12" cx="1068.3" cy="980.3" r="108.7"/>
			<path class="st11" d="M1086.5,714.3c-8.6-54.4-59.7-91.4-114.1-82.8c-54.4,8.6-91.4,59.7-82.8,114.1l33.1,207.9
				c8.6,54.4,59.7,91.4,114.1,82.8c54.4-8.6,91.4-59.7,82.8-114.1L1086.5,714.3z"/>
			<path class="st13" d="M972.4,631.5c-17.6,2.8-33.4,10.1-46.5,20.4L957.8,852c8.6,54.4,59.7,91.4,114.1,82.8
				c17.6-2.8,33.4-10.1,46.5-20.4l-31.8-200.1C1077.8,659.9,1026.8,622.8,972.4,631.5z"/>
			<path class="st14" d="M1462.1,1079.6c-23.6-61.9-92.8-92.9-154.7-69.4c-61.9,23.6-92.9,92.8-69.4,154.7l287.2,751.1
				c23.6,61.9,92.8,92.9,154.7,69.4c61.9-23.6,92.9-92.8,69.4-154.7L1462.1,1079.6z"/>
			<path class="st15" d="M1443.9,1241.8c-11.7-30.7-46-46-76.6-34.4c-30.7,11.7-46,46-34.4,76.6l142.3,372.1
				c11.7,30.6,46,46,76.6,34.4c30.7-11.7,46-46,34.4-76.6L1443.9,1241.8z"/>
			<path class="st14" d="M1802.1,1227.4L1556.4,1029c-51.5-41.4-126.9-33.2-168.3,18.3c-41.4,51.5-33.2,126.9,18.3,168.3
				l245.7,198.4c51.5,41.4,126.9,33.2,168.3-18.3S1853.6,1268.8,1802.1,1227.4z"/>
			<circle class="st16" cx="1358" cy="1046.4" r="138.1"/>
			<circle class="st14" cx="1356.7" cy="967.5" r="158.3"/>
			<path class="st14" d="M1448.8,688H1261c-65.6,0-119.3,53.7-119.3,119.3v61.4c0,99.4,81.3,180.7,180.7,180.7h65
				c99.4,0,180.7-81.3,180.7-180.7v-61.4C1568.1,741.7,1514.5,688,1448.8,688z"/>
			<path class="st14" d="M1220.8,693.5l-205.4-59.3c-52.9-15.1-107.9,15.5-123,68.4c-15.1,52.9,15.5,107.9,68.4,123l205.4,59.3
				c52.9,15.1,107.9-15.5,123-68.4C1304.3,763.6,1273.7,708.6,1220.8,693.5z"/>
			<path class="st17" d="M1220.8,693.5L1019,635.2c-1.6,44.7,27.2,86.4,72.1,99.2l201.8,58.2C1294.6,748,1265.7,706.3,1220.8,693.5z
				"/>
			<path class="st12" d="M1356.7,539.2c-40.8,0-74.2,33.4-74.2,74.2v120.9c0,40.8,33.4,74.2,74.2,74.2s74.2-33.4,74.2-74.2V613.4
				C1430.9,572.6,1397.5,539.2,1356.7,539.2z"/>
			<g>
				<ellipse class="st14" cx="1250.4" cy="952.6" rx="115.7" ry="115.7"/>
				<circle class="st14" cx="1463" cy="952.6" r="115.7"/>
			</g>
			<path class="st14" d="M1602.5,777.7c-19.6-51.6-77.3-77.4-128.9-57.8c-51.6,19.6-77.4,77.3-57.8,128.9l105,274
				c19.6,51.6,77.3,77.4,128.9,57.8s77.4-77.3,57.8-128.9L1602.5,777.7z"/>
			<path class="st17" d="M1465,894.7c-9.6,3.7-18.3,8.6-26,14.7l81.8,213.4c19.6,51.6,77.3,77.4,128.9,57.8
				c9.6-3.7,18.3-8.6,26-14.7l-81.8-213.4C1574.3,900.9,1516.6,875,1465,894.7z"/>
			<circle class="st12" cx="1373.3" cy="955.3" r="108.7"/>
			<path class="st11" d="M1646.2,992.7l-222-75.6c-52.2-17.7-108.9,10.3-126.6,62.5c-17.7,52.2,10.3,108.9,62.5,126.6l222,75.6
				c52.2,17.7,108.9-10.3,126.6-62.5C1726.3,1067,1698.4,1010.4,1646.2,992.7z"/>
			<path class="st13" d="M1604.3,1125.6l-222-75.6c-27.3-9.2-55.7-6-79.2,6.6c11.4,22.5,31.3,40.8,57.1,49.6l222,75.6
				c27.3,9.2,55.7,6,79.2-6.6C1650,1152.6,1630.1,1134.3,1604.3,1125.6z"/>
			<path class="st11" d="M1659.1,1594.7c-23.6-61.9-92.8-92.9-154.7-69.4c-61.9,23.6-92.9,92.8-69.4,154.7l90.3,236
				c23.6,61.9,92.8,92.9,154.7,69.4c61.9-23.6,92.9-92.8,69.4-154.7L1659.1,1594.7z"/>
			<path class="st18" d="M1549.3,1517.5c-14.9-0.3-30.1,2.2-44.9,7.8c-26.1,9.9-46.7,28-60.1,50.3l30.9,80.7
				c11.7,30.6,46,46,76.6,34.4c30.7-11.7,46-46,34.4-76.6L1549.3,1517.5z"/>
			<path class="st9" d="M1587.7,1680.6c-75.8,0-107.8,118.4-71.5,264.5c4.7,18.8,10.3,37.2,16.6,54.9h268.6
				c-2.5-17.7-6-36.1-10.7-54.9C1754.4,1799,1663.5,1680.6,1587.7,1680.6z"/>
			<path class="st9" d="M1487.9,683.1c-21.8,5.2-40.4,17.6-53.6,34.4c-13.3,16.8-21,37.8-21,60.1c0,6.9,0.8,14.1,2.5,21.4
				c1.6,7,4,13.8,7.1,20.4c7.9,16.5,27.7,23.5,44.3,15.6c16.5-7.9,23.5-27.7,15.6-44.3c-0.9-2-1.7-4.1-2.2-6.4
				c-0.4-1.9-0.7-4.2-0.7-6.8c0-7.2,2.4-13.8,6.4-19c4.1-5.2,9.9-9,16.9-10.7c17.9-4.2,29-22.2,24.7-40.1
				C1523.7,689.9,1505.8,678.8,1487.9,683.1z"/>
			<path class="st9" d="M1264,669.2c-21.8,5.2-40.4,17.6-53.6,34.4c-13.3,16.8-21,37.8-21,60.1c0,6.9,0.8,14.1,2.5,21.4
				c1.6,7,4,13.8,7.1,20.4c7.9,16.5,27.7,23.5,44.3,15.6s23.5-27.7,15.6-44.3c-0.9-2-1.7-4.1-2.2-6.4c-0.4-1.9-0.7-4.2-0.7-6.8
				c0-7.2,2.4-13.8,6.4-19c4.1-5.2,9.9-9,16.9-10.7c17.9-4.2,29-22.2,24.7-40.1C1299.8,676,1281.9,664.9,1264,669.2z"/>
			<circle class="st19" cx="1067.6" cy="398.4" r="158.3"/>
			<path class="st19" d="M878.6,321.9c-63.3,0-108,51.3-99.7,114.7c7.1,54.3,50.8,99.8,103.1,111.7
				c-62.8-0.7-120.2-51.7-128.4-114.7c-0.8-6.2-1.1-12.4-0.9-18.3c-4.5,14.3-6,30-3.8,46.7c8.3,63.3,66.4,114.7,129.7,114.7
				c33.6,0,62-14.5,79.9-37.5c35-18.9,55.7-57.7,49.8-102.5C1000,373.3,942,321.9,878.6,321.9z"/>
			<circle class="st19" cx="1210.2" cy="503.8" r="200.8"/>
			<path class="st12" d="M1356.7,331.4c-103.1,0-186.6,83.5-186.6,186.6c0,103.1,83.5,226.1,186.6,226.1
				c103.1,0,186.6-123.1,186.6-226.1C1543.3,414.9,1459.7,331.4,1356.7,331.4z"/>
			<path class="st19" d="M1458.3,250.9c-61.1-25.6-117.5-17.6-149.2,15.4c27.3-4.6,59.2-0.7,92.6,13.3
				c88.4,37,153.1,130.1,144.7,208c-2.6,24-11.9,43.8-26,58.5c45-7.7,77.4-38.8,82.7-87.3C1611.4,381.1,1546.6,287.9,1458.3,250.9z"
				/>
			<rect x="1201.2" y="369.2" class="st14" width="277.9" height="94.5"/>
			<circle class="st20" cx="1287.4" cy="530.5" r="18.1"/>
			<circle class="st20" cx="1449.5" cy="530.5" r="18.1"/>
			<path class="st11" d="M1438,494.2c-35.6,0-66.4,11.6-81.4,28.6c-15-17-45.8-28.6-81.4-28.6c-50.3,0-91.1,23.3-91.1,52
				c0,28.7,40.8,52,91.1,52c35.6,0,66.4-11.6,81.4-28.6c15,17,45.8,28.6,81.4,28.6c50.3,0,91.1-23.3,91.1-52
				C1529.1,517.5,1488.3,494.2,1438,494.2z M1275.3,571.1c-24,0-43.4-11.1-43.4-24.8c0-13.7,19.4-24.8,43.4-24.8
				c23.9,0,43.4,11.1,43.4,24.8C1318.7,560,1299.3,571.1,1275.3,571.1z M1438,571.1c-24,0-43.4-11.1-43.4-24.8
				c0-13.7,19.4-24.8,43.4-24.8s43.4,11.1,43.4,24.8C1481.4,560,1462,571.1,1438,571.1z"/>
			<path class="st19" d="M1351.9,291.2c-118.2,0-214.9,96.7-214.9,214.9v107.6c0,66.1,47.9,121.6,110.8,133.4
				c-26.5-16.6-44.3-46.1-44.3-79.5V538.8c0-81.7,66.8-148.5,148.5-148.5h0c81.7,0,148.5,66.8,148.5,148.5v74
				c0,46.2-21.4,87.6-54.8,114.9c71.6-35,121.2-108.6,121.2-193.3v-28.3C1566.9,387.9,1470.2,291.2,1351.9,291.2z"/>
			<path class="st19" d="M1330.7,353.4h-41.1c-45.4,39.5-74.3,97.6-74.3,162.2v107.6c0,66.1,47.9,121.6,110.8,133.4
				c-0.9-0.6-1.9-1.2-2.8-1.8c-45.9-21.8-77.8-68.7-77.8-122.7V524.5C1245.5,454.9,1279,392.7,1330.7,353.4z"/>
			<circle class="st16" cx="1210.2" cy="787.2" r="26"/>
			<circle class="st16" cx="1437" cy="801.4" r="26"/>
			<polygon class="st16" points="1370,412.7 1359.3,397.5 1348.5,412.7 1330.7,418.3 1341.8,433.2 1341.6,451.8 1359.3,445.9 
				1376.9,451.8 1376.7,433.2 1387.8,418.3 			"/>
			<path class="st21" d="M1366.1,581.7c-5.9,0-11.3,2.4-15.2,6.4c1-0.2,2-0.3,3-0.3c8.4,0,15.2,6.8,15.2,15.2
				c0,8.4-6.8,15.2-15.2,15.2c-1,0-2.1-0.1-3-0.3c3.9,3.9,9.2,6.4,15.2,6.4c11.7,0,21.3-9.5,21.3-21.3
				C1387.4,591.3,1377.9,581.7,1366.1,581.7z"/>
			<circle class="st8" cx="1309.4" cy="654.9" r="21.3"/>
		</g>
		<path class="st8" d="M2211.8,1513.4c-21.9,0-45,1.6-69.1,4.7c183.2,31.2,170.1,215-43.7,437c-14.6,15.1-29.8,30.1-45.5,44.9h129.1
			c15.7-14.8,30.9-29.7,45.5-44.9C2463,1711.2,2455.7,1513.4,2211.8,1513.4z"/>
		<g>
			<path class="st5" d="M2051.1,1642c-31.4-23.3-93.3,1-153.9,55.6c36.6-22.3,69.8-29,89.4-14.5c36.1,26.8,12.6,115.3-52.4,197.6
				c-47.2,59.8-103.4,100-144.4,107.3c44.5,19.5,131.5-31.4,201.4-119.9C2065.6,1773.9,2092.4,1672.6,2051.1,1642z"/>
			<path class="st5" d="M1006.9,1779.3c7.5-2,16.3-3.2,26.2-3.4c-39.7-8.2-73.1-10-95-4.1c-61.3,16.8-8.9,88.8,116.9,160.9
				c46.8,26.8,97.1,49.8,145,67.3h48.9c-41.8-16.4-84.8-36.7-125.2-59.8C998,1868.1,945.6,1796,1006.9,1779.3z"/>
			<path class="st5" d="M1797.9,1547.4c-23.1,0-57.2,22-91,55.9c21.4-16.9,41.5-27,56.5-27c35.8,0,29.4,57.3-14.2,127.9
				c-30.8,49.8-71.9,93-106,114.1h8.3c39.4-17.6,92.6-70.2,131-132.3C1829.8,1609.5,1836.7,1547.4,1797.9,1547.4z"/>
			<path class="st5" d="M1409.9,1759c-52.3-84.6-59.9-153.1-17.1-153.1c18,0,42,12.1,67.7,32.3c-40.5-40.6-81.3-67-108.9-67
				c-46.4,0-38.2,74.3,18.5,166c46,74.4,109.6,137.3,156.8,158.4h9.9C1495.9,1870.3,1446.7,1818.6,1409.9,1759z"/>
			<path class="st5" d="M1475.6,1651.7c8.7,2.3,18.9,11.2,28.8,24.3c-14.5-24.9-31-42.9-44.4-46.4c-22.6-5.9-28,31.3-12.1,83
				c12.9,42,35.8,80.7,56.1,96.9l4.8,1.3c-16.6-17.5-34-48.9-44.3-82.5C1449.8,1680.5,1454.8,1646.2,1475.6,1651.7z"/>
		</g>
	</g>
	<path class="st5" d="M2220.9,1229.7c-2.4-2.4-6.4-2.4-8.8,0c-2.4,2.4-2.4,6.4,0,8.8l10.2,10.2c2.4,2.4,6.4,2.4,8.8,0
		c2.4-2.4,2.4-6.4,0-8.8L2220.9,1229.7z"/>
	<path class="st5" d="M2222.2,1260.2l-10.2,10.2c-2.4,2.4-2.4,6.4,0,8.8c2.4,2.4,6.4,2.4,8.8,0l10.2-10.2c2.4-2.4,2.4-6.4,0-8.8
		C2228.6,1257.8,2224.6,1257.8,2222.2,1260.2z"/>
	<path class="st5" d="M2252.6,1229.7l-10.2,10.2c-2.4,2.4-2.4,6.4,0,8.8s6.4,2.4,8.8,0l10.2-10.2c2.4-2.4,2.4-6.4,0-8.8
		C2259,1227.3,2255.1,1227.3,2252.6,1229.7z"/>
	<path class="st5" d="M2251.3,1260.2c-2.4-2.4-6.4-2.4-8.8,0s-2.4,6.4,0,8.8l10.2,10.2c2.4,2.4,6.4,2.4,8.8,0s2.4-6.4,0-8.8
		L2251.3,1260.2z"/>
	<path class="st5" d="M250,1147.9c-3.5,0-6.3,2.8-6.3,6.3v14.4c0,3.5,2.8,6.3,6.3,6.3c3.5,0,6.3-2.8,6.3-6.3v-14.4
		C256.2,1150.7,253.4,1147.9,250,1147.9z"/>
	<path class="st5" d="M235.6,1133.5h-14.4c-3.5,0-6.3,2.8-6.3,6.3s2.8,6.3,6.3,6.3h14.4c3.5,0,6.3-2.8,6.3-6.3
		S239.1,1133.5,235.6,1133.5z"/>
	<path class="st5" d="M278.7,1133.5h-14.4c-3.5,0-6.3,2.8-6.3,6.3s2.8,6.3,6.3,6.3h14.4c3.5,0,6.3-2.8,6.3-6.3
		S282.2,1133.5,278.7,1133.5z"/>
	<path class="st5" d="M250,1104.8c-3.5,0-6.3,2.8-6.3,6.3v14.4c0,3.5,2.8,6.3,6.3,6.3c3.5,0,6.3-2.8,6.3-6.3v-14.4
		C256.2,1107.6,253.4,1104.8,250,1104.8z"/>
</g>
</svg>
